<svg xmlns="http://www.w3.org/2000/svg" xmlns:xlink="http://www.w3.org/1999/xlink" width="500" zoomAndPan="magnify" viewBox="0 0 375 374.999991" height="500" preserveAspectRatio="xMidYMid meet" version="1.0"><defs><clipPath id="b360552183"><path d="M 187.5 0 C 83.945312 0 0 83.945312 0 187.5 C 0 291.054688 83.945312 375 187.5 375 C 291.054688 375 375 291.054688 375 187.5 C 375 83.945312 291.054688 0 187.5 0 Z M 187.5 0 " clip-rule="nonzero"/></clipPath><clipPath id="98cbd652fd"><path d="M 0 0 L 375 0 L 375 375 L 0 375 Z M 0 0 " clip-rule="nonzero"/></clipPath><clipPath id="63619fa3c6"><path d="M 187.5 0 C 83.945312 0 0 83.945312 0 187.5 C 0 291.054688 83.945312 375 187.5 375 C 291.054688 375 375 291.054688 375 187.5 C 375 83.945312 291.054688 0 187.5 0 Z M 187.5 0 " clip-rule="nonzero"/></clipPath><clipPath id="4cbff0ae5d"><rect x="0" width="375" y="0" height="375"/></clipPath><clipPath id="a81a0d3639"><path d="M 0.25 0.269531 L 129.386719 0.269531 L 129.386719 13.183594 L 0.25 13.183594 Z M 0.25 0.269531 " clip-rule="nonzero"/></clipPath><clipPath id="8609f18ecc"><path d="M 0.25 0.269531 L 129.386719 0.269531 L 129.386719 13.183594 L 0.25 13.183594 Z M 0.25 0.269531 " clip-rule="nonzero"/></clipPath><clipPath id="1b84cb0e1d"><rect x="0" width="130" y="0" height="14"/></clipPath><clipPath id="d9951fc391"><path d="M 16.390625 22.082031 L 113.242188 22.082031 L 113.242188 31.765625 L 16.390625 31.765625 Z M 16.390625 22.082031 " clip-rule="nonzero"/></clipPath><clipPath id="a21ac3db39"><path d="M 0.390625 0.0820312 L 97.242188 0.0820312 L 97.242188 9.765625 L 0.390625 9.765625 Z M 0.390625 0.0820312 " clip-rule="nonzero"/></clipPath><clipPath id="b3cc3c8158"><rect x="0" width="98" y="0" height="10"/></clipPath><clipPath id="2e082cb7eb"><path d="M 32.535156 40.804688 L 97.101562 40.804688 L 97.101562 47.261719 L 32.535156 47.261719 Z M 32.535156 40.804688 " clip-rule="nonzero"/></clipPath><clipPath id="77ff525ec2"><path d="M 0.535156 0.804688 L 65.101562 0.804688 L 65.101562 7.261719 L 0.535156 7.261719 Z M 0.535156 0.804688 " clip-rule="nonzero"/></clipPath><clipPath id="fc4897e7be"><rect x="0" width="66" y="0" height="8"/></clipPath><clipPath id="9f02ef5233"><rect x="0" width="130" y="0" height="48"/></clipPath></defs><g clip-path="url(#b360552183)"><g transform="matrix(1, 0, 0, 1, 0, 0)"><g clip-path="url(#4cbff0ae5d)"><g clip-path="url(#98cbd652fd)"><g clip-path="url(#63619fa3c6)"><rect x="-82.5" width="540" fill="#ffffff" height="539.999987" y="-82.499998" fill-opacity="1"/></g></g></g></g></g><path fill="#155dfc" d="M 187.222656 -0.277344 C 83.335938 -0.277344 -0.277344 83.335938 -0.277344 187.222656 C -0.277344 291.105469 83.335938 374.722656 187.222656 374.722656 C 291.105469 374.722656 374.722656 291.105469 374.722656 187.222656 C 374.722656 83.335938 291.105469 -0.277344 187.222656 -0.277344 Z M 305.148438 92.105469 C 306.339844 92.0625 307.253906 93.058594 307.144531 94.230469 L 300.503906 166.214844 C 300.375 168.191406 297.726562 168.753906 296.835938 166.996094 C 294.425781 162.527344 291.257812 158.640625 287.546875 155.496094 L 251.980469 230.125 C 250.351562 233.511719 247.03125 235.746094 243.296875 235.984375 C 239.542969 236.222656 235.964844 234.402344 233.921875 231.253906 L 190.910156 164.242188 L 160.875 223.464844 C 159.226562 226.695312 156.015625 228.824219 152.414062 229.085938 C 148.8125 229.34375 145.339844 227.71875 143.234375 224.765625 L 115.933594 186.460938 L 87.503906 275.132812 C 86.375 278.648438 83.445312 281.296875 79.84375 282.078125 C 76.21875 282.859375 72.464844 281.644531 69.96875 278.910156 C 67.496094 276.15625 66.671875 272.3125 67.800781 268.777344 L 102.566406 160.574219 C 103.757812 156.839844 106.949219 154.105469 110.8125 153.5 C 114.675781 152.890625 118.539062 154.496094 120.835938 157.664062 L 150.179688 198.855469 L 180.667969 138.71875 C 182.382812 135.441406 185.679688 133.316406 189.371094 133.140625 C 193.058594 132.96875 196.554688 134.769531 198.550781 137.875 L 241.34375 204.429688 L 268.863281 146.574219 C 264 145.664062 258.902344 145.597656 253.800781 146.511719 C 253.195312 146.617188 252.566406 146.421875 252.132812 145.988281 C 251.351562 145.230469 251.351562 143.992188 252.132812 143.234375 L 303.867188 92.710938 C 304.214844 92.34375 304.671875 92.148438 305.148438 92.105469 " fill-opacity="1" fill-rule="nonzero"/><g transform="matrix(1, 0, 0, 1, 131, 240)"><g clip-path="url(#9f02ef5233)"><g clip-path="url(#a81a0d3639)"><g><g clip-path="url(#1b84cb0e1d)"><g clip-path="url(#8609f18ecc)"><path fill="#ffffff" d="M 0.25 0.269531 L 129.386719 0.269531 L 129.386719 13.183594 L 0.25 13.183594 Z M 0.25 0.269531 " fill-opacity="1" fill-rule="nonzero"/></g></g></g></g><g clip-path="url(#d9951fc391)"><g transform="matrix(1, 0, 0, 1, 16, 22)"><g clip-path="url(#b3cc3c8158)"><g clip-path="url(#a21ac3db39)"><path fill="#ffffff" d="M 0.390625 0.0820312 L 97.242188 0.0820312 L 97.242188 9.765625 L 0.390625 9.765625 Z M 0.390625 0.0820312 " fill-opacity="1" fill-rule="nonzero"/></g></g></g></g><g clip-path="url(#2e082cb7eb)"><g transform="matrix(1, 0, 0, 1, 32, 40)"><g clip-path="url(#fc4897e7be)"><g clip-path="url(#77ff525ec2)"><path fill="#ffffff" d="M 0.535156 0.804688 L 65.101562 0.804688 L 65.101562 7.261719 L 0.535156 7.261719 Z M 0.535156 0.804688 " fill-opacity="1" fill-rule="nonzero"/></g></g></g></g></g></g></svg>